<svg width="181" height="70" viewBox="0 0 181 70" fill="none" xmlns="http://www.w3.org/2000/svg">
<path d="M36.6669 10.3809L38.6742 11.0534C36.6073 17.2116 35.6071 23.7595 35.9095 30.8176L36.0086 33.1399L34.1925 31.6921C28.8441 27.4331 24.923 21.9255 22.6058 15.1423L24.6095 14.4555C26.5399 20.1059 29.603 24.7534 33.7464 28.5273C33.7287 22.1097 34.7564 16.0734 36.6669 10.3809ZM55.8293 11.3014C56.1376 23.7136 49.4608 33.1675 38.2777 36.4249C37.9862 23.9526 44.5245 14.4927 55.8293 11.3014ZM17.8624 28.3359C24.4821 28.3325 30.9641 31.2748 36.3839 36.956C26.1008 42.6028 14.6171 40.6271 5.99993 31.568C9.87098 29.4003 13.8908 28.3379 17.8624 28.3359ZM46.4129 36.8814C52.3545 36.9474 57.0727 40.5472 59.6313 47.2183C50.3042 50.96 42.4624 47.7009 38.9326 38.4533C41.5758 37.3688 44.0881 36.8557 46.4129 36.8814ZM37.1272 39.087C41.4047 48.1559 38.1233 55.9693 28.5923 59.8281C24.3118 50.7135 27.46 42.9134 37.1272 39.087Z" fill="black"/>
<path d="M90.1902 31.5645H81.2942L79.8222 35.8205H75.1182L83.1502 13.4525H88.3662L96.3982 35.8205H91.6622L90.1902 31.5645ZM88.9742 27.9805L85.7422 18.6365L82.5102 27.9805H88.9742Z" fill="black"/>
<path d="M102.792 24.6205C102.792 22.4232 103.283 20.4605 104.264 18.7325C105.267 16.9832 106.622 15.6285 108.328 14.6685C110.056 13.6872 111.987 13.1965 114.12 13.1965C116.616 13.1965 118.803 13.8365 120.68 15.1165C122.558 16.3965 123.87 18.1672 124.616 20.4285H119.464C118.952 19.3618 118.227 18.5618 117.288 18.0285C116.371 17.4952 115.304 17.2285 114.088 17.2285C112.787 17.2285 111.624 17.5378 110.6 18.1565C109.598 18.7538 108.808 19.6072 108.232 20.7165C107.678 21.8258 107.4 23.1272 107.4 24.6205C107.4 26.0925 107.678 27.3938 108.232 28.5245C108.808 29.6338 109.598 30.4978 110.6 31.1165C111.624 31.7138 112.787 32.0125 114.088 32.0125C115.304 32.0125 116.371 31.7458 117.288 31.2125C118.227 30.6578 118.952 29.8472 119.464 28.7805H124.616C123.87 31.0632 122.558 32.8445 120.68 34.1245C118.824 35.3832 116.638 36.0125 114.12 36.0125C111.987 36.0125 110.056 35.5325 108.328 34.5725C106.622 33.5912 105.267 32.2365 104.264 30.5085C103.283 28.7805 102.792 26.8178 102.792 24.6205Z" fill="black"/>
<path d="M157.275 13.4845V35.8205H152.795V21.2925L146.811 35.8205H143.419L137.403 21.2925V35.8205H132.923V13.4845H138.011L145.115 30.0925L152.219 13.4845H157.275Z" fill="black"/>
<path d="M170.664 17.1005V22.7005H178.184V26.2525H170.664V32.1725H179.144V35.8205H166.184V13.4525H179.144V17.1005H170.664Z" fill="black"/>
<path d="M85.2513 44.2405V54.0125H83.2913V47.6565L80.6733 54.0125H79.1893L76.5573 47.6565V54.0125H74.5973V44.2405H76.8233L79.9313 51.5065L83.0393 44.2405H85.2513ZM86.6851 50.1065C86.6851 49.3225 86.8391 48.6272 87.1471 48.0205C87.4645 47.4138 87.8891 46.9472 88.4211 46.6205C88.9625 46.2938 89.5645 46.1305 90.2271 46.1305C90.8058 46.1305 91.3098 46.2472 91.7391 46.4805C92.1778 46.7138 92.5278 47.0078 92.7891 47.3625V46.2565H94.7631V54.0125H92.7891V52.8785C92.5371 53.2425 92.1871 53.5458 91.7391 53.7885C91.3005 54.0218 90.7918 54.1385 90.2131 54.1385C89.5598 54.1385 88.9625 53.9705 88.4211 53.6345C87.8891 53.2985 87.4645 52.8272 87.1471 52.2205C86.8391 51.6045 86.6851 50.8998 86.6851 50.1065ZM92.7891 50.1345C92.7891 49.6585 92.6958 49.2525 92.5091 48.9165C92.3225 48.5712 92.0705 48.3098 91.7531 48.1325C91.4358 47.9458 91.0951 47.8525 90.7311 47.8525C90.3671 47.8525 90.0311 47.9412 89.7231 48.1185C89.4151 48.2958 89.1631 48.5572 88.9671 48.9025C88.7805 49.2385 88.6871 49.6398 88.6871 50.1065C88.6871 50.5732 88.7805 50.9838 88.9671 51.3385C89.1631 51.6838 89.4151 51.9498 89.7231 52.1365C90.0405 52.3232 90.3765 52.4165 90.7311 52.4165C91.0951 52.4165 91.4358 52.3278 91.7531 52.1505C92.0705 51.9638 92.3225 51.7025 92.5091 51.3665C92.6958 51.0212 92.7891 50.6105 92.7891 50.1345ZM100.975 46.1445C101.899 46.1445 102.646 46.4385 103.215 47.0265C103.785 47.6052 104.069 48.4172 104.069 49.4625V54.0125H102.109V49.7285C102.109 49.1125 101.955 48.6412 101.647 48.3145C101.339 47.9785 100.919 47.8105 100.387 47.8105C99.8461 47.8105 99.4168 47.9785 99.0994 48.3145C98.7914 48.6412 98.6374 49.1125 98.6374 49.7285V54.0125H96.6774V46.2565H98.6374V47.2225C98.8988 46.8865 99.2301 46.6252 99.6314 46.4385C100.042 46.2425 100.49 46.1445 100.975 46.1445ZM113.255 46.2565V54.0125H111.281V53.0325C111.029 53.3685 110.698 53.6345 110.287 53.8305C109.886 54.0172 109.447 54.1105 108.971 54.1105C108.365 54.1105 107.828 53.9845 107.361 53.7325C106.895 53.4712 106.526 53.0932 106.255 52.5985C105.994 52.0945 105.863 51.4972 105.863 50.8065V46.2565H107.823V50.5265C107.823 51.1425 107.977 51.6185 108.285 51.9545C108.593 52.2812 109.013 52.4445 109.545 52.4445C110.087 52.4445 110.511 52.2812 110.819 51.9545C111.127 51.6185 111.281 51.1425 111.281 50.5265V46.2565H113.255ZM118.745 47.8665H117.387V54.0125H115.399V47.8665H114.517V46.2565H115.399V45.8645C115.399 44.9125 115.67 44.2125 116.211 43.7645C116.752 43.3165 117.569 43.1065 118.661 43.1345V44.7865C118.185 44.7772 117.854 44.8565 117.667 45.0245C117.48 45.1925 117.387 45.4958 117.387 45.9345V46.2565H118.745V47.8665ZM119.511 50.1065C119.511 49.3225 119.665 48.6272 119.973 48.0205C120.291 47.4138 120.715 46.9472 121.247 46.6205C121.789 46.2938 122.391 46.1305 123.053 46.1305C123.632 46.1305 124.136 46.2472 124.565 46.4805C125.004 46.7138 125.354 47.0078 125.615 47.3625V46.2565H127.589V54.0125H125.615V52.8785C125.363 53.2425 125.013 53.5458 124.565 53.7885C124.127 54.0218 123.618 54.1385 123.039 54.1385C122.386 54.1385 121.789 53.9705 121.247 53.6345C120.715 53.2985 120.291 52.8272 119.973 52.2205C119.665 51.6045 119.511 50.8998 119.511 50.1065ZM125.615 50.1345C125.615 49.6585 125.522 49.2525 125.335 48.9165C125.149 48.5712 124.897 48.3098 124.579 48.1325C124.262 47.9458 123.921 47.8525 123.557 47.8525C123.193 47.8525 122.857 47.9412 122.549 48.1185C122.241 48.2958 121.989 48.5572 121.793 48.9025C121.607 49.2385 121.513 49.6398 121.513 50.1065C121.513 50.5732 121.607 50.9838 121.793 51.3385C121.989 51.6838 122.241 51.9498 122.549 52.1365C122.867 52.3232 123.203 52.4165 123.557 52.4165C123.921 52.4165 124.262 52.3278 124.579 52.1505C124.897 51.9638 125.149 51.7025 125.335 51.3665C125.522 51.0212 125.615 50.6105 125.615 50.1345ZM129 50.1345C129 49.3318 129.163 48.6318 129.49 48.0345C129.816 47.4278 130.269 46.9612 130.848 46.6345C131.426 46.2985 132.089 46.1305 132.836 46.1305C133.797 46.1305 134.59 46.3732 135.216 46.8585C135.85 47.3345 136.275 48.0065 136.49 48.8745H134.376C134.264 48.5385 134.072 48.2772 133.802 48.0905C133.54 47.8945 133.214 47.7965 132.822 47.7965C132.262 47.7965 131.818 48.0018 131.492 48.4125C131.165 48.8138 131.002 49.3878 131.002 50.1345C131.002 50.8718 131.165 51.4458 131.492 51.8565C131.818 52.2578 132.262 52.4585 132.822 52.4585C133.615 52.4585 134.133 52.1038 134.376 51.3945H136.49C136.275 52.2345 135.85 52.9018 135.216 53.3965C134.581 53.8912 133.788 54.1385 132.836 54.1385C132.089 54.1385 131.426 53.9752 130.848 53.6485C130.269 53.3125 129.816 52.8458 129.49 52.2485C129.163 51.6418 129 50.9372 129 50.1345ZM140.207 47.8665V51.6185C140.207 51.8798 140.268 52.0712 140.389 52.1925C140.52 52.3045 140.735 52.3605 141.033 52.3605H141.943V54.0125H140.711C139.059 54.0125 138.233 53.2098 138.233 51.6045V47.8665H137.309V46.2565H138.233V44.3385H140.207V46.2565H141.943V47.8665H140.207ZM150.675 46.2565V54.0125H148.701V53.0325C148.449 53.3685 148.118 53.6345 147.707 53.8305C147.306 54.0172 146.867 54.1105 146.391 54.1105C145.785 54.1105 145.248 53.9845 144.781 53.7325C144.315 53.4712 143.946 53.0932 143.675 52.5985C143.414 52.0945 143.283 51.4972 143.283 50.8065V46.2565H145.243V50.5265C145.243 51.1425 145.397 51.6185 145.705 51.9545C146.013 52.2812 146.433 52.4445 146.965 52.4445C147.507 52.4445 147.931 52.2812 148.239 51.9545C148.547 51.6185 148.701 51.1425 148.701 50.5265V46.2565H150.675ZM154.569 47.4605C154.821 47.0498 155.148 46.7278 155.549 46.4945C155.96 46.2612 156.426 46.1445 156.949 46.1445V48.2025H156.431C155.815 48.2025 155.348 48.3472 155.031 48.6365C154.723 48.9258 154.569 49.4298 154.569 50.1485V54.0125H152.609V46.2565H154.569V47.4605ZM159.263 45.3325C158.918 45.3325 158.629 45.2252 158.395 45.0105C158.171 44.7865 158.059 44.5112 158.059 44.1845C158.059 43.8578 158.171 43.5872 158.395 43.3725C158.629 43.1485 158.918 43.0365 159.263 43.0365C159.609 43.0365 159.893 43.1485 160.117 43.3725C160.351 43.5872 160.467 43.8578 160.467 44.1845C160.467 44.5112 160.351 44.7865 160.117 45.0105C159.893 45.2252 159.609 45.3325 159.263 45.3325ZM160.229 46.2565V54.0125H158.269V46.2565H160.229ZM166.464 46.1445C167.388 46.1445 168.134 46.4385 168.704 47.0265C169.273 47.6052 169.558 48.4172 169.558 49.4625V54.0125H167.598V49.7285C167.598 49.1125 167.444 48.6412 167.136 48.3145C166.828 47.9785 166.408 47.8105 165.876 47.8105C165.334 47.8105 164.905 47.9785 164.588 48.3145C164.28 48.6412 164.126 49.1125 164.126 49.7285V54.0125H162.166V46.2565H164.126V47.2225C164.387 46.8865 164.718 46.6252 165.12 46.4385C165.53 46.2425 165.978 46.1445 166.464 46.1445ZM174.46 46.1305C175.038 46.1305 175.547 46.2472 175.986 46.4805C176.424 46.7045 176.77 46.9985 177.022 47.3625V46.2565H178.996V54.0685C178.996 54.7872 178.851 55.4265 178.562 55.9865C178.272 56.5558 177.838 57.0038 177.26 57.3305C176.681 57.6665 175.981 57.8345 175.16 57.8345C174.058 57.8345 173.153 57.5778 172.444 57.0645C171.744 56.5512 171.347 55.8512 171.254 54.9645H173.2C173.302 55.3192 173.522 55.5992 173.858 55.8045C174.203 56.0192 174.618 56.1265 175.104 56.1265C175.673 56.1265 176.135 55.9538 176.49 55.6085C176.844 55.2725 177.022 54.7592 177.022 54.0685V52.8645C176.77 53.2285 176.42 53.5318 175.972 53.7745C175.533 54.0172 175.029 54.1385 174.46 54.1385C173.806 54.1385 173.209 53.9705 172.668 53.6345C172.126 53.2985 171.697 52.8272 171.38 52.2205C171.072 51.6045 170.918 50.8998 170.918 50.1065C170.918 49.3225 171.072 48.6272 171.38 48.0205C171.697 47.4138 172.122 46.9472 172.654 46.6205C173.195 46.2938 173.797 46.1305 174.46 46.1305ZM177.022 50.1345C177.022 49.6585 176.928 49.2525 176.742 48.9165C176.555 48.5712 176.303 48.3098 175.986 48.1325C175.668 47.9458 175.328 47.8525 174.964 47.8525C174.6 47.8525 174.264 47.9412 173.956 48.1185C173.648 48.2958 173.396 48.5572 173.2 48.9025C173.013 49.2385 172.92 49.6398 172.92 50.1065C172.92 50.5732 173.013 50.9838 173.2 51.3385C173.396 51.6838 173.648 51.9498 173.956 52.1365C174.273 52.3232 174.609 52.4165 174.964 52.4165C175.328 52.4165 175.668 52.3278 175.986 52.1505C176.303 51.9638 176.555 51.7025 176.742 51.3665C176.928 51.0212 177.022 50.6105 177.022 50.1345Z" fill="#6D6D6D"/>
</svg>
