<svg width="101" height="41" viewBox="0 0 101 41" fill="none" xmlns="http://www.w3.org/2000/svg">
<g clip-path="url(#clip0_104_10442)">
<path d="M14.207 38.1509C14.1092 38.2204 13.9975 38.2899 13.8857 38.3733C13.774 38.4566 13.6622 38.54 13.5505 38.6234C13.4527 38.7068 13.3689 38.8041 13.313 38.9153C13.2571 39.0126 13.2431 39.1238 13.2711 39.2488C13.2711 39.2766 13.285 39.2905 13.285 39.3183C13.285 39.3322 13.299 39.36 13.299 39.3739C13.313 39.3878 13.313 39.4156 13.3269 39.4295C13.3409 39.4434 13.3409 39.4712 13.3549 39.4851C13.285 39.5963 13.2152 39.7075 13.1453 39.8187C13.0895 39.9299 13.0196 40.0272 12.9498 40.1105C12.8799 40.1939 12.7961 40.2634 12.6983 40.3051C12.6005 40.3468 12.4748 40.3746 12.3351 40.3746C12.1954 40.3746 12.0557 40.3468 11.916 40.3051C11.7763 40.2634 11.6506 40.2078 11.5249 40.1383C11.3991 40.0688 11.2734 39.9855 11.1617 39.9021C11.0359 39.8187 10.9242 39.7214 10.8124 39.6241C10.8124 39.6102 10.8124 39.5963 10.7985 39.5824C10.7985 39.5685 10.7985 39.5546 10.7845 39.5407C10.7845 39.5268 10.7845 39.5129 10.7705 39.499C10.7705 39.4851 10.7565 39.4712 10.7565 39.4573C10.7146 39.3461 10.6727 39.2488 10.6169 39.1655C10.561 39.0821 10.4772 38.9987 10.4073 38.9153C10.3235 38.8458 10.2397 38.7763 10.1559 38.7068C10.072 38.6512 9.97425 38.5817 9.87646 38.54C9.87646 38.54 9.87646 38.54 9.87646 38.5539C9.87646 38.5539 9.87646 38.5539 9.87646 38.5678C9.87646 38.5678 9.87646 38.5678 9.87646 38.5817C9.87646 38.5817 9.87646 38.5817 9.87646 38.5956C9.87646 38.6095 9.89043 38.6234 9.89043 38.6512C9.89043 38.6651 9.9044 38.679 9.9044 38.7068C9.9044 38.7207 9.91837 38.7485 9.91837 38.7624C9.91837 38.7763 9.93234 38.8041 9.93234 38.818C10.0301 39.096 10.1698 39.36 10.3375 39.6102C10.5051 39.8465 10.7007 40.0549 10.9242 40.2356C11.1477 40.4163 11.3852 40.5692 11.6366 40.6804C11.8881 40.7916 12.1675 40.861 12.4329 40.8749C12.7123 40.8888 12.9777 40.8472 13.2152 40.7499C13.4527 40.6526 13.6762 40.4858 13.8438 40.2773C14.0254 40.0688 14.1511 39.8048 14.221 39.5129C14.2908 39.2071 14.3048 38.8736 14.235 38.5261L14.207 38.1509Z" fill="white"/>
<path d="M3.22677 24.4889C3.19883 24.5028 3.17089 24.5167 3.14295 24.5305C3.11502 24.5444 3.08708 24.5583 3.05914 24.5722C3.0312 24.5861 3.00326 24.6 2.97532 24.6278C2.94738 24.6417 2.91944 24.6695 2.8915 24.6834C2.73784 24.7807 2.59814 24.8919 2.45845 24.9892C2.31875 25.1004 2.19302 25.2116 2.08127 25.3367C1.96951 25.4617 1.85775 25.6007 1.746 25.7675C1.63424 25.9343 1.53645 26.1289 1.45264 26.3512C1.71806 26.3095 1.98348 26.3095 2.2489 26.3512C2.52829 26.3929 2.79372 26.4624 3.07311 26.5736C3.3525 26.6848 3.63189 26.8377 3.91128 27.0183C4.19067 27.199 4.47006 27.4214 4.74946 27.6716L3.63189 24.3638C3.60395 24.3777 3.56204 24.3777 3.5341 24.3916C3.50616 24.4055 3.46426 24.4055 3.43632 24.4194C3.40838 24.4333 3.36647 24.4472 3.33853 24.4611C3.28265 24.4611 3.25471 24.475 3.22677 24.4889Z" fill="white"/>
<path d="M4.13477 24.3081L5.23836 27.5186L7.68304 27.5603C7.43158 27.0461 7.15219 26.5874 6.85883 26.1844C6.56547 25.7813 6.27211 25.4478 5.96478 25.1698C5.65745 24.8918 5.35012 24.6834 5.04279 24.5305C4.74943 24.4054 4.4421 24.322 4.13477 24.3081Z" fill="white"/>
<path d="M5.58789 28.5332C5.96507 28.9779 6.32828 29.4783 6.69149 30.0481C7.0547 30.6179 7.40394 31.2573 7.7392 31.9383C8.07447 32.6332 8.39577 33.3837 8.68914 34.1759C8.9825 34.982 9.26189 35.8298 9.49937 36.7332C9.51334 36.344 9.52731 35.941 9.51334 35.5379C9.49937 35.1349 9.4854 34.7179 9.44349 34.301C9.41555 33.8841 9.35967 33.4532 9.3038 33.0363C9.24792 32.6054 9.1641 32.1885 9.08028 31.7576C9.02441 31.4657 8.95456 31.1878 8.88471 30.9098C8.81486 30.6318 8.74501 30.3678 8.6612 30.1037C8.57738 29.8396 8.50753 29.5895 8.42371 29.3393C8.3399 29.0891 8.24211 28.8529 8.15829 28.6305L5.58789 28.5332Z" fill="white"/>
<path d="M0.0419922 4.8645C0.11184 5.53162 0.195658 6.19874 0.279475 6.86586C0.363292 7.54688 0.461079 8.22789 0.572836 8.92281C0.684593 9.61772 0.796349 10.3126 0.908106 11.0215C1.03383 11.7303 1.15956 12.4391 1.29925 13.1618C1.48087 14.1069 1.67643 15.0242 1.88597 15.9137C2.09551 16.817 2.30506 17.6926 2.52857 18.5543C2.75208 19.416 2.9756 20.2499 3.22705 21.056C3.46453 21.876 3.716 22.6543 3.96745 23.4187C4.07921 23.4048 4.19096 23.3909 4.30272 23.3909C4.41447 23.3909 4.52622 23.4048 4.63797 23.4187C4.74973 23.4326 4.86149 23.4604 4.97324 23.5021C5.085 23.5438 5.19676 23.5855 5.30851 23.6411C5.05706 23.0435 4.80561 22.4181 4.55416 21.7787C4.3027 21.1394 4.06524 20.4862 3.82775 19.8191C3.59027 19.152 3.36674 18.4709 3.14323 17.776C2.91972 17.0811 2.69622 16.3723 2.48667 15.6496C2.20728 14.7045 1.95583 13.7733 1.71835 12.8421C1.48087 11.9248 1.25734 11.0076 1.06177 10.1042C0.866197 9.20077 0.684593 8.31128 0.516958 7.43569C0.307414 6.5601 0.167718 5.6984 0.0419922 4.8645Z" fill="white"/>
<path d="M21.8625 18.5959C21.7229 18.6237 21.5692 18.6515 21.4295 18.6793C21.2898 18.7071 21.1501 18.7488 20.9964 18.7766C20.8567 18.8183 20.717 18.8461 20.5773 18.8878C20.4377 18.9295 20.298 18.9712 20.1583 19.0268L19.6973 23.1129C20.1583 22.5847 20.6472 22.0983 21.1501 21.6535C21.653 21.2088 22.1559 20.7918 22.6868 20.4166C23.2036 20.0413 23.7484 19.7078 24.2933 19.4159C24.8381 19.124 25.3969 18.86 25.9556 18.6376C25.6204 18.5403 25.313 18.4708 24.9917 18.4291C24.6704 18.3874 24.3631 18.3735 24.0278 18.3735C23.7065 18.3735 23.3713 18.4013 23.022 18.443C22.6728 18.4847 22.3096 18.5403 21.9184 18.5959H21.9045H21.8905H21.8765H21.8625Z" fill="white"/>
<path d="M18.356 24.7947L12.405 27.7411C12.3212 28.0747 12.2513 28.3943 12.2094 28.7418C12.1536 29.0754 12.1117 29.4228 12.0837 29.7703C12.0558 30.1177 12.0418 30.4652 12.0558 30.8126C12.0558 31.1601 12.0837 31.5215 12.1117 31.8689C12.1675 32.3971 12.2513 32.9113 12.3771 33.4116C12.5028 33.912 12.6565 34.3984 12.8381 34.8571C13.0197 35.3296 13.2432 35.7743 13.4807 36.1913C13.7321 36.6221 13.9975 37.0113 14.2909 37.3865C14.3188 36.1635 14.4306 34.9543 14.6401 33.773C14.8497 32.6194 15.1291 31.5076 15.4923 30.4374C15.8415 29.3811 16.2746 28.3804 16.7635 27.4354C17.2385 26.4903 17.7693 25.6147 18.356 24.7947Z" fill="white"/>
<path opacity="0.7" d="M16.5538 0.0834961C16.7493 0.820107 16.903 1.58452 17.0427 2.37672C17.1684 3.18282 17.2662 4.00282 17.3361 4.86452C17.4059 5.74011 17.4618 6.6435 17.5037 7.57469C17.5456 8.51977 17.5596 9.50655 17.5736 10.5211C17.6155 12.8838 17.4339 14.7879 17.1265 16.3723C16.8052 18.0123 16.3442 19.291 15.8413 20.3889C15.3245 21.5008 14.7657 22.4042 14.2628 23.252C13.7459 24.1276 13.2989 24.9337 13.0195 25.8927C13.0055 25.9204 13.0055 25.9343 12.9915 25.9621C12.9776 25.9899 12.9636 26.0038 12.9636 26.0316C12.9496 26.0594 12.9496 26.0872 12.9357 26.1011C12.9217 26.1289 12.9217 26.1567 12.9077 26.1706L18.5375 23.4743C18.8308 21.6815 19.0124 19.9998 19.1102 18.4293C19.208 16.9004 19.2359 15.4689 19.208 14.1486C19.1801 12.856 19.0962 11.6469 18.9984 10.535C18.8867 9.43706 18.747 8.43638 18.5933 7.53299C18.4816 6.85197 18.3419 6.17096 18.2022 5.51774C18.0625 4.86452 17.8949 4.22519 17.7272 3.59977C17.5596 2.98824 17.378 2.37672 17.1824 1.79299C16.9729 1.20926 16.7773 0.639429 16.5538 0.0834961Z" fill="white"/>
<path d="M39.9528 31.4658C36.1111 31.4658 34.3789 29.5479 34.3789 27.0601L34.5745 26.8655H36.8795L37.075 27.0601C37.075 28.3943 37.8434 29.1587 40.1483 29.1587C41.8806 29.1587 42.8445 28.5889 42.8445 27.4353C42.8445 26.1011 42.0761 25.7119 39.38 25.3367C36.6839 24.9614 34.5745 24.0024 34.5745 21.3201C34.5745 19.4021 36.1111 17.6787 39.7712 17.6787C43.4312 17.6787 44.9678 19.4021 44.9678 21.6953L44.7723 21.8899H42.4673L42.2717 21.6953C42.2717 20.5418 41.699 19.9719 39.5756 19.9719C37.8434 19.9719 37.2706 20.5418 37.2706 21.3062C37.2706 22.4597 38.0389 22.835 40.7351 23.2241C43.4312 23.6133 45.5406 24.7529 45.5406 27.4353C45.5266 29.5618 43.99 31.4658 39.9528 31.4658Z" fill="white"/>
<path d="M52.0646 31.4658C50.3324 31.4658 49.5641 30.5069 49.5641 30.5069H49.3685V34.9126L49.1729 35.1072H46.8679L46.6724 34.9126V21.9038L46.8679 21.7092H48.9773L49.1729 21.9038L49.3685 22.4736H49.5641C49.5641 22.4736 50.3324 21.5146 52.0646 21.5146C54.3696 21.5146 56.2974 23.4326 56.2974 26.4902C56.2974 29.5479 54.3696 31.4658 52.0646 31.4658ZM51.4919 23.8218C49.9552 23.8218 49.3825 24.9753 49.3825 26.5041C49.3825 28.033 49.9552 29.1865 51.4919 29.1865C53.0285 29.1865 53.6013 28.033 53.6013 26.5041C53.6013 24.9614 53.0285 23.8218 51.4919 23.8218Z" fill="white"/>
<path d="M63.6036 24.0163H62.2626C60.7259 24.0163 60.1532 24.7808 60.1532 26.5041V31.0906L59.9576 31.2852H57.6526L57.457 31.0906V21.9038L57.6526 21.7092H59.762L59.9576 21.9038L60.1532 22.4736H60.3487C60.3487 22.4736 60.7399 21.7092 62.4581 21.7092H63.6176L63.8132 21.9038V23.8218L63.6036 24.0163Z" fill="white"/>
<path d="M70.714 31.4658C69.9457 33.3838 69.1774 34.5234 66.4812 34.5234H65.5173L65.3218 34.3289V32.4109L65.5173 32.2163H66.4812C67.4451 32.2163 67.6407 32.0217 67.8223 31.4519V31.2573L64.749 23.7939V21.876L64.9446 21.6814H66.6768L66.8724 21.876L69.1774 28.3804H69.373L71.6779 21.876L71.8735 21.6814H73.6057L73.8013 21.876V23.7939L70.714 31.4658Z" fill="white"/>
<path d="M83.2168 31.2852H82.0574L81.6662 31.0906L78.9841 28.2136H78.7885L77.629 29.3672L77.4334 29.7564V31.0906L77.2379 31.2852H74.9329L74.7373 31.0906V18.0818L74.9329 17.8872H77.2518L77.4474 18.0818V25.7397H77.643L81.4846 21.9177L81.8758 21.7231H83.0352L83.2308 21.9177V23.8357L80.9258 26.1289V26.3235L83.4264 29.1865V31.1045L83.2168 31.2852Z" fill="white"/>
<path d="M93.2051 27.2686L93.0095 27.4631H87.0445L86.8489 27.6577C86.8489 28.0469 87.2401 29.1865 88.7767 29.1865C89.3495 29.1865 89.9362 28.992 90.1178 28.6167L90.3134 28.4221H92.6184L92.8139 28.6167C92.6184 29.7703 91.6545 31.4798 88.7767 31.4798C85.5078 31.4798 83.9712 29.1865 83.9712 26.5042C83.9712 23.8218 85.5078 21.5286 88.5811 21.5286C91.6545 21.5286 93.1911 23.8218 93.1911 26.5042V27.2686H93.2051ZM90.3273 25.3506C90.3273 25.156 90.1318 23.8218 88.5951 23.8218C87.0585 23.8218 86.8629 25.156 86.8629 25.3506L87.0585 25.5452H90.1318L90.3273 25.3506Z" fill="white"/>
<path d="M100.707 24.0163H99.3656C97.8289 24.0163 97.2562 24.7808 97.2562 26.5041V31.0906L97.0606 31.2852H94.7556L94.5601 31.0906V21.9038L94.7556 21.7092H96.865L97.0606 21.9038L97.2562 22.4736H97.4518C97.4518 22.4736 97.8429 21.7092 99.5612 21.7092H100.721L100.916 21.9038V23.8218L100.707 24.0163Z" fill="white"/>
</g>
<defs>
<clipPath id="clip0_104_10442">
<rect width="101" height="41" fill="white"/>
</clipPath>
</defs>
</svg>
